<svg width="360" height="130" viewBox="0 0 360 130" xmlns="http://www.w3.org/2000/svg" xmlns:xlink="http://www.w3.org/1999/xlink">
<rect width="180" height="130" fill="#ffffff"/><rect x="180" width="180" height="130" fill="#2b2d30"/>
<g font-family="sans-serif" font-size="14">
<text x="35" y="20" fill="#333">A</text><text x="95" y="20" fill="#333">B</text><text x="150" y="20" fill="#333">C</text>
<text x="215" y="20" fill="#ccc">A</text><text x="275" y="20" fill="#ccc">B</text><text x="330" y="20" fill="#ccc">C</text>
</g>
<image x="18" y="30" width="48" height="48" xlink:href="A48.png"/><image x="34" y="90" width="16" height="16" xlink:href="A16.png"/>
<image x="78" y="30" width="48" height="48" xlink:href="B48.png"/><image x="94" y="90" width="16" height="16" xlink:href="B16.png"/>
<image x="138" y="30" width="48" height="48" xlink:href="C48.png"/><image x="154" y="90" width="16" height="16" xlink:href="C16.png"/>
<image x="198" y="30" width="48" height="48" xlink:href="A48.png"/><image x="214" y="90" width="16" height="16" xlink:href="A16.png"/>
<image x="258" y="30" width="48" height="48" xlink:href="B48.png"/><image x="274" y="90" width="16" height="16" xlink:href="B16.png"/>
<image x="318" y="30" width="48" height="48" xlink:href="C48.png"/><image x="334" y="90" width="16" height="16" xlink:href="C16.png"/>
</svg>
