<svg width="48" height="48" viewBox="0 0 24 24" fill="none" xmlns="http://www.w3.org/2000/svg">
  <ellipse cx="4.2" cy="12" rx="2.2" ry="3.2" fill="#5933CC"/>
  <ellipse cx="19.8" cy="12" rx="2.2" ry="3.2" fill="none" stroke="#AF47D1" stroke-width="1.2"/>
  <path d="M12 5 C8 5, 5.5 7.5, 5.5 11 C5.5 15.5, 8.5 19, 12 19 Z" fill="#5933CC"/>
  <g stroke="#AF47D1" stroke-width="1.2" fill="none" stroke-linecap="round" stroke-linejoin="round">
    <path d="M12 5 C16 5, 18.5 7.5, 18.5 11 C18.5 15.5, 15.5 19, 12 19"/>
    <path d="M12 9 C14.5 8.5, 16.5 9, 17.4 10.2"/>
    <path d="M13.2 12.2 A1.4 1.6 0 0 1 15.6 12.2"/>
    <path d="M13 16 C14.5 16.8, 16 16.5, 17 15.4"/>
  </g>
  <g stroke="#AF47D1" stroke-width="1.2" fill="none" stroke-linecap="round">
    <path d="M12 5 L12 19"/>
    <path d="M12 9 C9.5 8.5, 7.5 9, 6.6 10.2"/>
  </g>
</svg>