<svg width="470" height="120" viewBox="0 0 470 120" xmlns="http://www.w3.org/2000/svg" xmlns:xlink="http://www.w3.org/1999/xlink">
<rect width="470" height="120" fill="#ffffff"/><rect x="0" y="0" width="120" height="120" fill="#f3f3f3"/>
<rect x="0" y="60" width="60" height="60" fill="#2b2d30"/>
<image x="12" y="10" width="40" height="40" xlink:href="plug_l.png"/>
<image x="12" y="70" width="40" height="40" xlink:href="plug_d.png"/>
<g font-family="sans-serif" font-size="12" fill="#333">
<text x="150" y="16">GLB</text><text x="235" y="16">glTF</text><text x="320" y="16">STL</text><text x="405" y="16">OBJ</text>
</g>
<image x="150" y="24" width="40" height="40" xlink:href="glb40.png"/><image x="162" y="72" width="16" height="16" xlink:href="glb16.png"/>
<image x="235" y="24" width="40" height="40" xlink:href="gltf40.png"/><image x="247" y="72" width="16" height="16" xlink:href="gltf16.png"/>
<image x="320" y="24" width="40" height="40" xlink:href="stl40.png"/><image x="332" y="72" width="16" height="16" xlink:href="stl16.png"/>
<image x="405" y="24" width="40" height="40" xlink:href="obj40.png"/><image x="417" y="72" width="16" height="16" xlink:href="obj16.png"/>
</svg>
