<svg width="40" height="40" viewBox="0 0 24 24" fill="none" xmlns="http://www.w3.org/2000/svg">
  <defs>
    <clipPath id="icoL"><rect x="0" y="0" width="12" height="24"/></clipPath>
    <clipPath id="icoR"><rect x="12" y="0" width="12" height="24"/></clipPath>
    <path id="hex" d="M12 2.5 L20.6 7.25 L20.6 16.75 L12 21.5 L3.4 16.75 L3.4 7.25 Z"/>
  </defs>
  <!-- solid left -->
  <use href="#hex" fill="#2AA6A0" clip-path="url(#icoL)"/>
  <path d="M12 2.5 L3.4 7.25 L7.5 10 L12 10 Z" fill="#4FC3BD"/>
  <!-- wireframe right -->
  <g clip-path="url(#icoR)" stroke="#6FDAD3" stroke-width="1.1" stroke-linejoin="round" fill="none">
    <use href="#hex"/>
    <path d="M12 2.5 L16.5 10 L20.6 7.25 M20.6 16.75 L16.5 10 L12 17.5 M12 21.5 L16.5 10"/>
    <path d="M16.5 10 L12 10"/>
  </g>
  <!-- shared outline + inner left edges + seam -->
  <g clip-path="url(#icoL)" stroke="#6FDAD3" stroke-width="1.1" stroke-linejoin="round" fill="none">
    <use href="#hex"/>
    <path d="M12 2.5 L7.5 10 L3.4 7.25 M3.4 16.75 L7.5 10 L12 17.5 M12 21.5 L7.5 10 M7.5 10 L12 10"/>
  </g>
  <path d="M12 2.5 L12 21.5" stroke="#6FDAD3" stroke-width="1.1" stroke-linecap="round"/>
</svg>
