<svg width="16px" height="16px" viewBox="0 0 24 24" stroke-width="1.5" fill="none" xmlns="http://www.w3.org/2000/svg" color="#2F855A">
    <path d="M12 22C17.5228 22 22 17.5228 22 12C22 6.47715 17.5228 2 12 2C6.47715 2 2 6.47715 2 12C2 17.5228 6.47715 22 12 22Z" stroke="#2F855A" stroke-width="1.5" stroke-linecap="round" stroke-linejoin="round"/>
    <path d="M12 2C12 2 16 6 16 12C16 18 12 22 12 22" stroke="#2F855A" stroke-width="1.5" stroke-linecap="round" stroke-linejoin="round"/>
    <path d="M12 2C12 2 8 6 8 12C8 18 12 22 12 22" stroke="#2F855A" stroke-width="1.5" stroke-linecap="round" stroke-linejoin="round"/>
    <path d="M3 12H21" stroke="#2F855A" stroke-width="1.5" stroke-linecap="round" stroke-linejoin="round"/>
    <path d="M3.5 7H20.5" stroke="#2F855A" stroke-width="1.5" stroke-linecap="round" stroke-linejoin="round"/>
    <path d="M3.5 17H20.5" stroke="#2F855A" stroke-width="1.5" stroke-linecap="round" stroke-linejoin="round"/>
</svg>
