<svg width="720" height="420" viewBox="0 0 720 420" xmlns="http://www.w3.org/2000/svg" xmlns:xlink="http://www.w3.org/1999/xlink">
  <rect x="0" y="0" width="360" height="420" fill="#FFFFFF"/>
  <rect x="360" y="0" width="360" height="420" fill="#2B2D30"/>
  <text x="20" y="30" font-family="Helvetica" font-size="18" fill="#111">NEW (light)</text>
  <text x="380" y="30" font-family="Helvetica" font-size="18" fill="#eee">NEW (dark)</text>
  <text x="20" y="250" font-family="Helvetica" font-size="18" fill="#111">CURRENT (light)</text>
  <text x="380" y="250" font-family="Helvetica" font-size="18" fill="#eee">CURRENT (dark)</text>

  <image x="30"  y="60" width="160" height="160" xlink:href="cand_160.png"/>
  <image x="220" y="140" width="40" height="40" xlink:href="cand_40.png"/>
  <image x="290" y="152" width="16" height="16" xlink:href="cand_16.png"/>

  <image x="390" y="60" width="160" height="160" xlink:href="cand_160.png"/>
  <image x="580" y="140" width="40" height="40" xlink:href="cand_40.png"/>
  <image x="650" y="152" width="16" height="16" xlink:href="cand_16.png"/>

  <image x="30"  y="270" width="160" height="160" xlink:href="curr_160.png"/>
  <image x="220" y="350" width="40" height="40" xlink:href="curr_40.png"/>
  <image x="290" y="362" width="16" height="16" xlink:href="curr_16.png"/>

  <image x="390" y="270" width="160" height="160" xlink:href="curr_160.png"/>
  <image x="580" y="350" width="40" height="40" xlink:href="curr_40.png"/>
  <image x="650" y="362" width="16" height="16" xlink:href="curr_16.png"/>
</svg>
