<svg width="40" height="40" viewBox="0 0 24 24" fill="none" xmlns="http://www.w3.org/2000/svg">
  <!-- body solid left -->
  <path d="M12 8.5 A7 5.5 0 0 0 12 19.5 Z" fill="#2AA6A0"/>
  <!-- spout -->
  <path d="M6 10.5 C3 10, 2.5 12.5, 3.5 13.5" stroke="#2AA6A0" stroke-width="1.6" fill="none" stroke-linecap="round"/>
  <!-- body wireframe right -->
  <g stroke="#1F827D" stroke-width="1.2" fill="none" stroke-linecap="round" stroke-linejoin="round">
    <path d="M12 8.5 A7 5.5 0 0 1 12 19.5"/>
    <path d="M12 14 A7 2 0 0 1 19 14"/>
    <path d="M14 8.9 A2.2 5.2 0 0 1 14 19.1"/>
    <!-- handle -->
    <path d="M18.6 10.5 C21.5 10.5, 21.5 15, 18.6 15.5"/>
  </g>
  <!-- lid + knob (shared) -->
  <g stroke="#1F827D" stroke-width="1.2" fill="none" stroke-linecap="round">
    <path d="M5 8.5 A7 2 0 0 0 19 8.5"/>
    <path d="M12 8.5 L12 19.5"/>
    <path d="M10.5 6.5 A1.5 1 0 0 0 13.5 6.5"/>
    <path d="M12 5.8 L12 6.5"/>
  </g>
  <ellipse cx="12" cy="5.6" rx="1" ry="0.8" fill="#2AA6A0"/>
</svg>
