<svg width="40" height="40" viewBox="0 0 24 24" fill="none" xmlns="http://www.w3.org/2000/svg">
  <defs>
    <clipPath id="rt"><rect x="12" y="1" width="12" height="22"/></clipPath>
    <path id="ringL" d="M12 3 A9 9 0 0 0 12 21 A4 4 0 0 1 12 16 A5 5 0 0 0 12 8 Z"/>
  </defs>
  <!-- solid left ring -->
  <path d="M12 3 A9 9 0 0 0 12 21 L12 16 A4 4 0 0 1 12 8 Z" fill="#2AA6A0"/>
  <!-- wireframe right -->
  <g clip-path="url(#rt)" stroke="#1F827D" stroke-width="1.2" fill="none">
    <circle cx="12" cy="12" r="9"/>
    <circle cx="12" cy="12" r="6.5"/>
    <circle cx="12" cy="12" r="4"/>
    <path d="M12 3 L12 8 M17.36 8.5 L15.2 10 M20.5 14.5 L16 13.5 M17.36 18.5 L15.2 15"/>
  </g>
  <path d="M12 3 L12 8 M12 16 L12 21" stroke="#1F827D" stroke-width="1.2" stroke-linecap="round"/>
</svg>
